<?xml version="1.0" encoding="UTF-8"?>
<svg id="Layer_1" data-name="Layer 1" xmlns="http://www.w3.org/2000/svg" viewBox="0 0 1023.89 96.88">
  <defs>
    <style>
      .cls-1 {
        fill: #000;
      }

      .cls-1, .cls-2, .cls-3 {
        stroke-width: 0px;
      }

      .cls-2 {
        fill: #754c24;
      }

      .cls-3 {
        fill: #603813;
      }
    </style>
  </defs>
  <g>
    <path class="cls-3" d="M72.39,95.88c-3.72,0-7.17-1.68-9.46-4.62L2.72,13.98C.78,11.5.45,8.34,1.83,5.51,3.21,2.69,5.91,1,9.06,1h1013.83v82.88c0,6.61-5.38,11.99-11.99,11.99H72.39Z"/>
    <path class="cls-1" d="M1021.89,2v81.88c0,6.06-4.93,10.99-10.99,10.99H72.39c-3.41,0-6.57-1.54-8.67-4.24L3.5,13.37c-1.69-2.17-1.98-4.95-.77-7.42,1.21-2.47,3.57-3.95,6.33-3.95h1012.83M1023.89,0H9.06C1.53,0-2.7,8.66,1.93,14.6l60.22,77.27c2.46,3.16,6.24,5.01,10.25,5.01h938.5c7.18,0,12.99-5.82,12.99-12.99V0h0Z"/>
  </g>
  <g>
    <polygon class="cls-2" points="11.36 10.04 1014.51 8.75 1014.51 86.87 72.9 88.12 11.36 10.04"/>
    <path class="cls-1" d="M1013.51,9.75v76.12l-469.55.62-470.57.62-30.96-39.28L13.41,11.04l1000.09-1.28M1015.51,7.75c-335.4.43-670.81.86-1006.21,1.29,21.04,26.69,42.08,53.39,63.12,80.08,314.36-.42,628.73-.83,943.09-1.25V7.75h0Z"/>
  </g>
</svg>