<?xml version="1.0" encoding="utf-8"?>
<!-- Generator: Adobe Illustrator 28.3.0, SVG Export Plug-In . SVG Version: 6.00 Build 0)  -->
<svg version="1.1" id="Layer_1" xmlns="http://www.w3.org/2000/svg" xmlns:xlink="http://www.w3.org/1999/xlink" x="0px" y="0px"
	 viewBox="0 0 1024 768" style="enable-background:new 0 0 1024 768;" xml:space="preserve">
<style type="text/css">
	.st0{fill:#D38D00;}
	.st1{fill:#AA7B00;}
	.st2{fill:#D40005;}
</style>
<rect x="233" y="468" class="st0" width="558" height="86"/>
<path class="st1" d="M791,468H233c0-68,0-136,0-204c88-62.33,176-124.67,264-187c10,0,20,0,30,0c88,60,176,120,264,180
	C791,327.33,791,397.67,791,468z"/>
<g>
	<rect x="131.5" y="175" transform="matrix(0.866 -0.5 0.5 0.866 -50.5874 191.205)" class="st2" width="400" height="30"/>
</g>
<g>
	<rect x="203" y="554" class="st2" width="618" height="30"/>
</g>
<g>
	<rect x="678" y="-10" transform="matrix(0.5 -0.866 0.866 0.5 181.9552 695.1556)" class="st2" width="30" height="400"/>
</g>
<g>
	<rect x="203" y="184" class="st2" width="30" height="400"/>
</g>
<g>
	<rect x="791" y="184" class="st2" width="30" height="400"/>
</g>
<g>
	<rect x="507" y="84" class="st2" width="10" height="500"/>
</g>
<g>
	<rect x="497" y="34" class="st2" width="30" height="74"/>
</g>
<path class="st1" d="M233,220.41"/>
</svg>
